<?xml version="1.0" encoding="UTF-8"?>
<svg width="32px" height="32px" viewBox="0 0 32 32" version="1.1" xmlns="http://www.w3.org/2000/svg" xmlns:xlink="http://www.w3.org/1999/xlink">
    <!-- Generator: Sketch 53.1 (72631) - https://sketchapp.com -->
    <title>Group 21</title>
    <desc>Created with Sketch.</desc>
    <g id="Page-1" stroke="none" stroke-width="1" fill="none" fill-rule="evenodd">
        <g id="desktop-home" transform="translate(-907.000000, -979.000000)" fill="#FFFFFF" fill-rule="nonzero">
            <g id="Group-22" transform="translate(890.000000, 720.000000)">
                <g id="Group-11-Copy-2">
                    <g id="Group-21" transform="translate(17.000000, 259.000000)">
                        <g id="Spotify_logo_without_text">
                            <path d="M15.9999045,-2.68307806e-14 L15.9997134,0.000764256671 C24.8371754,0.000764256671 32,7.16414203 32,16.0000955 C32,24.8370044 24.8371754,32 15.9999045,32 C7.16358882,32 4.26325641e-14,24.8370044 4.26325641e-14,16.0000955 C4.26325641e-14,7.16356884 7.16358882,-2.68307806e-14 15.9999045,-2.68307806e-14 Z M23.3373575,23.0767302 C23.6258575,22.6067123 23.476831,21.9933963 23.0068244,21.7048895 C18.7893747,19.1274338 13.5614107,18.5273013 7.46660935,19.9203501 C6.9285855,20.0426312 6.59365802,20.5776109 6.71650934,21.1145012 C6.83878749,21.6513915 7.37375438,21.9876644 7.91044081,21.8653834 C13.4798283,20.592896 18.2089356,21.1125905 21.9655496,23.4072712 C22.4355562,23.6957781 23.0507681,23.546748 23.3373575,23.0767302 Z M25.2957185,18.7195118 L25.2957185,18.7197029 C25.6568211,18.1339002 25.4714933,17.3658222 24.8849403,17.0047109 C19.9460495,13.9696566 12.722277,13.1155998 6.9115812,14.8787399 C6.25299874,15.0793573 5.88100569,15.7748309 6.07970768,16.4345754 C6.27993814,17.0931736 6.97673252,17.4649845 7.63646134,17.2657046 C12.7234233,15.721524 19.2792515,16.4871181 23.5800032,19.1312551 C24.1665562,19.4923664 24.9346158,19.3070341 25.2957185,18.7195118 Z M25.4638509,14.1828842 L25.4646152,14.1828842 C26.1734463,14.605136 27.0943536,14.3707003 27.5146847,13.6595595 C27.9369264,12.949374 27.7038337,12.0309285 26.9911814,11.6088678 C21.0541953,8.08430706 11.6588392,7.75281073 6.00710503,9.46856696 C5.21592721,9.70892568 4.76999409,10.5444493 5.00958283,11.3354549 C5.24917158,12.1260785 6.08524841,12.5724044 6.87585305,12.3326188 C11.799268,10.838306 20.3071522,11.1199346 25.4638509,14.1828842 Z" id="Shape"></path>
                        </g>
                    </g>
                </g>
            </g>
        </g>
    </g>
</svg>