<?xml version="1.0" encoding="UTF-8"?>
<svg width="33px" height="26px" viewBox="0 0 33 26" version="1.1" xmlns="http://www.w3.org/2000/svg" xmlns:xlink="http://www.w3.org/1999/xlink">
    <!-- Generator: sketchtool 53.1 (72631) - https://sketchapp.com -->
    <title>374FAC3E-641B-4457-95BB-3E5247ACF08B</title>
    <desc>Created with sketchtool.</desc>
    <g id="Page-1" stroke="none" stroke-width="1" fill="none" fill-rule="evenodd">
        <g id="desktop-home" transform="translate(-372.000000, -6469.000000)" fill="#FFFFFF" fill-rule="nonzero">
            <g id="Group-24-Copy" transform="translate(-2.000000, 6441.000000)">
                <g id="twitter" transform="translate(374.000000, 28.000000)">
                    <path d="M33,3.078 C31.7728125,3.6 30.4651875,3.946 29.101875,4.114 C30.504375,3.302 31.5748125,2.026 32.0780625,0.488 C30.7704375,1.244 29.3266875,1.778 27.7880625,2.076 C26.5464375,0.794 24.7768125,0 22.8463125,0 C19.1008125,0 16.0854375,2.948 16.0854375,6.562 C16.0854375,7.082 16.1308125,7.582 16.2421875,8.058 C10.61775,7.792 5.6409375,5.178 2.297625,1.196 C1.7139375,2.178 1.3715625,3.302 1.3715625,4.512 C1.3715625,6.784 2.578125,8.798 4.376625,9.964 C3.2896875,9.944 2.223375,9.638 1.32,9.156 C1.32,9.176 1.32,9.202 1.32,9.228 C1.32,12.416 3.6650625,15.064 6.74025,15.674 C6.1895625,15.82 5.589375,15.89 4.9665,15.89 C4.533375,15.89 4.096125,15.866 3.6856875,15.778 C4.56225,18.376 7.049625,20.286 10.00725,20.348 C7.7055,22.094 4.7829375,23.146 1.6190625,23.146 C1.06425,23.146 0.532125,23.122 0,23.056 C2.9968125,24.93 6.5484375,26 10.3785,26 C22.82775,26 29.634,16 29.634,7.332 C29.634,7.042 29.6236875,6.762 29.60925,6.484 C30.9519375,5.56 32.080125,4.406 33,3.078 Z" id="Shape"></path>
                </g>
            </g>
        </g>
    </g>
</svg>