<?xml version="1.0" encoding="UTF-8"?>
<svg width="34px" height="25px" viewBox="0 0 34 25" version="1.1" xmlns="http://www.w3.org/2000/svg" xmlns:xlink="http://www.w3.org/1999/xlink">
    <!-- Generator: sketchtool 53.1 (72631) - https://sketchapp.com -->
    <title>AD235D1B-C4AA-4D98-909B-20574A4897FA</title>
    <desc>Created with sketchtool.</desc>
    <g id="Page-1" stroke="none" stroke-width="1" fill="none" fill-rule="evenodd">
        <g id="desktop-home" transform="translate(-906.000000, -724.000000)" fill="#FFFFFF" fill-rule="nonzero">
            <g id="Group-22" transform="translate(890.000000, 710.000000)">
                <g id="youtube" transform="translate(16.000000, 14.000000)">
                    <path d="M32.555,2.34025974 C31.63275,0.635844156 30.631875,0.322337662 28.594,0.203116883 C26.55825,0.0596103896 21.439125,0 17.00425,0 C12.560875,0 7.439625,0.0596103896 5.406,0.200909091 C3.372375,0.322337662 2.369375,0.633636364 1.438625,2.34025974 C0.48875,4.04246753 0,6.97441558 0,12.1362338 C0,12.1406494 0,12.1428571 0,12.1428571 C0,12.1472727 0,12.1494805 0,12.1494805 L0,12.1538961 C0,17.2936364 0.48875,20.2476623 1.438625,21.9322078 C2.369375,23.6366234 3.37025,23.9457143 5.403875,24.0892208 C7.439625,24.2128571 12.560875,24.2857143 17.00425,24.2857143 C21.439125,24.2857143 26.55825,24.2128571 28.596125,24.0914286 C30.634,23.9479221 31.634875,23.6388312 32.557125,21.9344156 C33.5155,20.2498701 34,17.2958442 34,12.1561039 C34,12.1561039 34,12.1494805 34,12.1450649 C34,12.1450649 34,12.1406494 34,12.1384416 C34,6.97441558 33.5155,4.04246753 32.555,2.34025974 Z M12.75,18.7662338 L12.75,5.51948052 L23.375,12.1428571 L12.75,18.7662338 Z" id="Shape"></path>
                </g>
            </g>
        </g>
    </g>
</svg>